Coordinates
version=1
nRows=26
nColumns=24
inDegrees=yes

Units are S.I. units (second, meters, Newtons, ...)
If the header above contains a line with 'inDegrees', this indicates whether rotational values are in degrees (yes) or radians (no).

endheader
time	pelvis_tilt	pelvis_list	pelvis_rotation	pelvis_tx	pelvis_ty	pelvis_tz	hip_flexion_r	hip_adduction_r	hip_rotation_r	knee_angle_r	ankle_angle_r	subtalar_angle_r	mtp_angle_r	hip_flexion_l	hip_adduction_l	hip_rotation_l	knee_angle_l	ankle_angle_l	subtalar_angle_l	mtp_angle_l	lumbar_extension	lumbar_bending	lumbar_rotation
      2.06000000	      9.22033439	      6.61993238	      9.96463022	     -0.02405306	      0.90103780	     -0.29243322	     17.20872495	     -7.59697481	    -14.53622704	     -8.95958354	      0.33598492	      0.00000000	      0.00000000	    -26.17693823	      4.35127445	      5.22840932	    -15.09201612	     11.98058466	      0.00000000	      0.00000000	    -18.85953970	     -7.13923971	    -15.35439738
      2.06500000	      9.37874566	      6.49247950	      9.95919532	     -0.01642659	      0.90039525	     -0.29233071	     17.31325529	     -7.48604506	    -14.72271229	    -10.15518378	     -0.21323704	      0.00000000	      0.00000000	    -26.29539365	      4.10377129	      5.03234711	    -16.04258400	     11.68159259	      0.00000000	      0.00000000	    -18.96668560	     -6.85132981	    -15.34274214
      2.07000000	      9.53882965	      6.36271522	      9.98515303	     -0.00884280	      0.89985549	     -0.29210887	     17.37545665	     -7.36308341	    -14.86771757	    -11.27423863	     -0.99776780	      0.00000000	      0.00000000	    -26.34459041	      3.82612062	      4.81029315	    -17.09323814	     11.29712271	      0.00000000	      0.00000000	    -19.08847640	     -6.58563983	    -15.29348710
      2.07500000	      9.69935378	      6.20300813	     10.00852991	     -0.00119887	      0.89938449	     -0.29184168	     17.42103774	     -7.20361409	    -14.98681298	    -12.36732901	     -1.85768133	      0.00000000	      0.00000000	    -26.34838334	      3.51271511	      4.52714332	    -18.20596691	     10.82329275	      0.00000000	      0.00000000	    -19.20262236	     -6.27858008	    -15.22897935
      2.08000000	      9.83716822	      5.96957212	     10.03559305	      0.00655081	      0.89901642	     -0.29153361	     17.45051828	     -6.95737525	    -15.05516828	    -13.36528070	     -2.92786123	      0.00000000	      0.00000000	    -26.29646881	      3.12561164	      4.20978173	    -19.33016060	     10.17016012	      0.00000000	      0.00000000	    -19.26948361	     -5.89515334	    -15.09217681
      2.08500000	     10.03226554	      5.77060586	     10.02206311	      0.01427396	      0.89863314	     -0.29120204	     17.48927059	     -6.75297868	    -15.11565104	    -14.52603710	     -3.44673592	      0.00000000	      0.00000000	    -26.24990138	      2.77283501	      3.80120553	    -20.56529959	      9.63323826	      0.00000000	      0.00000000	    -19.40534871	     -5.51995480	    -15.05360470
      2.09000000	     10.22662521	      5.53118375	     10.00092357	      0.02192830	      0.89834050	     -0.29071082	     17.50232223	     -6.47912610	    -15.10385528	    -15.60005158	     -4.05542397	      0.00000000	      0.00000000	    -26.11607618	      2.36667692	      3.32583662	    -21.90589887	      8.89560027	      0.00000000	      0.00000000	    -19.56258055	     -5.16332489	    -14.98592447
      2.09500000	     10.42331535	      5.26231837	      9.99704220	      0.02968662	      0.89813378	     -0.29016828	     17.48943064	     -6.16563739	    -15.03190435	    -16.65201304	     -4.60202065	      0.00000000	      0.00000000	    -25.95120712	      1.90449421	      2.80652657	    -23.26463471	      8.01020434	      0.00000000	      0.00000000	    -19.68101238	     -4.78207891	    -14.89880155
      2.10000000	     10.55935625	      4.85322146	      9.96759171	      0.03780575	      0.89805654	     -0.28944808	     17.44489322	     -5.65237502	    -14.87995121	    -17.50795247	     -5.19610517	      0.00000000	      0.00000000	    -25.70123583	      1.28080775	      2.10279826	    -24.58397336	      6.53147788	      0.00000000	      0.00000000	    -19.64019154	     -4.28043323	    -14.62786399
      2.10500000	     10.79349164	      4.56144146	      9.93716962	      0.04546975	      0.89791862	     -0.28879796	     17.43850713	     -5.30339982	    -14.77609248	    -18.66979193	     -5.33282057	      0.00000000	      0.00000000	    -25.45087819	      0.77265810	      1.50176784	    -26.09852219	      5.55629235	      0.00000000	      0.00000000	    -19.83576590	     -3.84023470	    -14.50466466
      2.11000000	     11.01494191	      4.21702576	      9.90588708	      0.05320753	      0.89784218	     -0.28800237	     17.40335167	     -4.86474562	    -14.60551267	    -19.75762273	     -5.29575194	      0.00000000	      0.00000000	    -25.12682223	      0.18120169	      0.83539633	    -27.66317817	      4.23477129	      0.00000000	      0.00000000	    -20.00165045	     -3.39634767	    -14.35552194
      2.11500000	     11.22820044	      3.83431914	      9.87370510	      0.06105373	      0.89781890	     -0.28712484	     17.35039235	     -4.36308240	    -14.39034180	    -20.82339764	     -5.04713966	      0.00000000	      0.00000000	    -24.75767017	     -0.47590770	      0.12538341	    -29.23859805	      2.63951492	      0.00000000	      0.00000000	    -20.12299726	     -2.92113134	    -14.16884668
      2.12000000	     11.36794554	      3.32796682	      9.72842020	      0.06946481	      0.89783749	     -0.28621383	     17.30942536	     -3.68858074	    -14.08456061	    -21.77635457	     -4.54386029	      0.00000000	      0.00000000	    -24.39160779	     -1.20217792	     -0.70029520	    -30.64768738	      0.46038285	      0.00000000	      0.00000000	    -19.97239621	     -2.32581665	    -13.55424317
      2.12500000	     11.63551558	      2.99535525	      9.69544269	      0.07694477	      0.89781890	     -0.28524812	     17.23188342	     -3.22596280	    -13.86598853	    -22.93289478	     -4.04117655	      0.00000000	      0.00000000	    -23.92453398	     -1.83924682	     -1.31828109	    -32.42484435	     -1.01393812	      0.00000000	      0.00000000	    -20.25860578	     -1.91532378	    -13.41936693
      2.13000000	     11.80611433	      2.54036015	      9.62049459	      0.08509169	      0.89790032	     -0.28426126	     17.12781451	     -2.59604889	    -13.61880679	    -23.90003157	     -3.13808787	      0.00000000	      0.00000000	    -23.43208887	     -2.58709416	     -2.01541060	    -34.01309936	     -3.34055209	      0.00000000	      0.00000000	    -20.19803045	     -1.37117769	    -13.05376364
      2.13500000	     12.00672550	      2.11408340	      9.59146905	      0.09291174	      0.89794826	     -0.28328868	     17.02047472	     -2.00437461	    -13.39189727	    -24.92898898	     -2.21606352	      0.00000000	      0.00000000	    -22.87134866	     -3.33227052	     -2.58286538	    -35.72650589	     -5.40163827	      0.00000000	      0.00000000	    -20.31840746	     -0.89836592	    -12.80955725
      2.14000000	     12.26398159	      1.76867870	      9.53914236	      0.10024563	      0.89794263	     -0.28221624	     16.89068961	     -1.48297314	    -13.14803373	    -26.00359067	     -1.48925883	      0.00000000	      0.00000000	    -22.24933915	     -4.00283564	     -3.08584350	    -37.60837088	     -7.08962985	      0.00000000	      0.00000000	    -20.61741917	     -0.49682984	    -12.65946776
      2.14500000	     12.36003282	      1.27588915	      9.53220580	      0.10833843	      0.89805381	     -0.28131003	     16.74675001	     -0.80935027	    -12.98951103	    -26.80704928	     -0.35940816	      0.00000000	      0.00000000	    -21.53320770	     -4.80825542	     -3.53509383	    -39.28344444	     -9.55960280	      0.00000000	      0.00000000	    -20.47751800	      0.06326704	    -12.28774011
      2.15000000	     12.52728280	      0.86949110	      9.50662352	      0.11591602	      0.89810656	     -0.28037232	     16.57105552	     -0.21726064	    -12.81994242	    -27.66370831	      0.65537720	      0.00000000	      0.00000000	    -20.77875596	     -5.51819734	     -3.87481159	    -41.11782535	    -11.50523810	      0.00000000	      0.00000000	    -20.56873551	      0.52580368	    -12.05826325
      2.15500000	     12.76042168	      0.54866172	      9.41611354	      0.12298605	      0.89813172	     -0.27934721	     16.36193072	      0.30268855	    -12.59761405	    -28.54385843	      1.38938038	      0.00000000	      0.00000000	    -20.01503364	     -6.10804870	     -4.15479761	    -43.05598093	    -12.95365445	      0.00000000	      0.00000000	    -20.88909159	      0.86875493	    -11.91716716
      2.16000000	     12.79358319	      0.05784720	      9.50756028	      0.13083020	      0.89826636	     -0.27861187	     16.14488117	      0.96432399	    -12.58384723	    -29.10242949	      2.56767977	      0.00000000	      0.00000000	    -19.05859192	     -6.90142335	     -4.26556713	    -44.83062595	    -15.02226975	      0.00000000	      0.00000000	    -20.68756710	      1.45415124	    -11.61266085
      2.16500000	     12.79760114	     -0.35100829	      9.53138849	      0.13813950	      0.89825541	     -0.27789933	     16.00708835	      1.52638518	    -12.52559971	    -29.68654189	      3.41247151	      0.00000000	      0.00000000	    -17.96839305	     -7.53333860	     -4.28533225	    -46.75007436	    -16.40089702	      0.00000000	      0.00000000	    -20.61325713	      1.93799986	    -11.35396560
      2.17000000	     12.99445966	     -0.62378096	      9.38172890	      0.14503199	      0.89839259	     -0.27708825	     15.69862816	      1.99302326	    -12.34482340	    -30.32169967	      4.06537851	      0.00000000	      0.00000000	    -17.11223694	     -7.95731110	     -4.38298929	    -48.62369733	    -17.29637939	      0.00000000	      0.00000000	    -20.90380917	      2.19968972	    -11.23162545
      2.17500000	     12.63960112	     -1.12053966	      9.58874826	      0.15252199	      0.89811477	     -0.27664515	     15.81186214	      2.55453540	    -12.52086470	    -30.66990933	      5.02336759	      0.00000000	      0.00000000	    -15.49170998	     -8.63490956	     -4.09543428	    -50.59594354	    -18.28140372	      0.00000000	      0.00000000	    -20.30244570	      2.79242038	    -10.96046792
      2.18000000	     12.76722067	     -1.44742813	      9.53090059	      0.15954026	      0.89837952	     -0.27608501	     15.41871374	      3.05955038	    -12.47412420	    -31.02550575	      5.85569904	      0.00000000	      0.00000000	    -14.51216427	     -9.07573751	     -4.00522536	    -52.38803610	    -18.82823034	      0.00000000	      0.00000000	    -20.42943748	      3.18427332	    -10.77923375
      2.18500000	     12.94217076	     -1.65236592	      9.32218974	      0.16628023	      0.89876048	     -0.27546456	     14.97788253	      3.45842733	    -12.27516017	    -31.37920877	      6.27989607	      0.00000000	      0.00000000	    -13.62549815	     -9.29441440	     -3.97287186	    -54.09420918	    -19.04929948	      0.00000000	      0.00000000	    -20.70848926	      3.36931949	    -10.66235581
